PathFileType	4	(X/Y/Z)	C:\Vicon\SynologyDrive\Alex P\Athlete_3\Athlete_3_22_07_06\static_01\marker_experimental.trc																																																																																																																																																																																																																																											
DataRate	CameraRate	NumFrames	NumMarkers	Units	OrigDataRate	OrigDataStartFrame	OrigNumFrames																																																																																																																																																																																																																																							
200	200	4	79	mm	200	0	693																																																																																																																																																																																																																																							
Frame#	Time	GLAB			RFHD			LFHD			C7			T6			SPINMOL			SPINM2			SPINM3			T12			BELTOL			BELT2			BELT3			SACROL			SACR2			SACR3			LASI			RASI			LPSI			RPSI			LTHOL			LTH2			LTH3			LKNEL			LKNEM			LFIB			LSHAOL			LSHA2			LSHA3			LMALL			LMALM			LHEE			LTOE			LM5			RTHOL			RTH2			RTH3			RKNEL			RKNEM			RFIB			RSHAOL			RSHA2			RSHA3			RMALL			RMALM			RHEE			RTOE			RM5			STRN			XIPH			LACR			LUAOL			LUA2			LUA3			LCUBL			LCUBM			LLAOL			LLA2			LLA3			LWRR			LWRU			RACR			RUAOL			RUA2			RUA3			RCUBL			RCUBM			RLAOL			RLA2			RLA3			RWRR			RWRU			Bar:BL			Bar:BR			LKJCWK			RKJCWK			RAJCWK			LAJCWK			RHJCWK			LHJCWK		
		X1	Y1	Z1	X2	Y2	Z2	X3	Y3	Z3	X4	Y4	Z4	X5	Y5	Z5	X6	Y6	Z6	X7	Y7	Z7	X8	Y8	Z8	X9	Y9	Z9	X10	Y10	Z10	X11	Y11	Z11	X12	Y12	Z12	X13	Y13	Z13	X14	Y14	Z14	X15	Y15	Z15	X16	Y16	Z16	X17	Y17	Z17	X18	Y18	Z18	X19	Y19	Z19	X20	Y20	Z20	X21	Y21	Z21	X22	Y22	Z22	X23	Y23	Z23	X24	Y24	Z24	X25	Y25	Z25	X26	Y26	Z26	X27	Y27	Z27	X28	Y28	Z28	X29	Y29	Z29	X30	Y30	Z30	X31	Y31	Z31	X32	Y32	Z32	X33	Y33	Z33	X34	Y34	Z34	X35	Y35	Z35	X36	Y36	Z36	X37	Y37	Z37	X38	Y38	Z38	X39	Y39	Z39	X40	Y40	Z40	X41	Y41	Z41	X42	Y42	Z42	X43	Y43	Z43	X44	Y44	Z44	X45	Y45	Z45	X46	Y46	Z46	X47	Y47	Z47	X48	Y48	Z48	X49	Y49	Z49	X50	Y50	Z50	X51	Y51	Z51	X52	Y52	Z52	X53	Y53	Z53	X54	Y54	Z54	X55	Y55	Z55	X56	Y56	Z56	X57	Y57	Z57	X58	Y58	Z58	X59	Y59	Z59	X60	Y60	Z60	X61	Y61	Z61	X62	Y62	Z62	X63	Y63	Z63	X64	Y64	Z64	X65	Y65	Z65	X66	Y66	Z66	X67	Y67	Z67	X68	Y68	Z68	X69	Y69	Z69	X70	Y70	Z70	X71	Y71	Z71	X72	Y72	Z72	X73	Y73	Z73	X74	Y74	Z74	X75	Y75	Z75	X76	Y76	Z76	X77	Y77	Z77	X78	Y78	Z78	X79	Y79	Z79
																																																																																																																																																																																																																																														
1	0	349.1359863	1572.940552	-1216.727539	289.7665405	1588.592407	-1140.71228	286.1170959	1588.292114	-1292.831421	123.5680847	1449.501465	-1213.634033	69.66680908	1243.983154	-1228.533203	65.61782074	1211.793091	-1232.808105	60.54897308	1150.937866	-1180.928589	69.71385193	1150.049805	-1229.804321	83.2558136	1109.147827	-1228.477173	60.14894867	1086.572998	-1227.87085	61.40110016	1026.994263	-1174.737427	53.98907852	1024.776978	-1224.372314	65.08804321	974.8418579	-1249.768066	71.64577484	984.5251465	-1199.911499	42.05163193	926.0350952	-1211.18396	281.6358643	943.0339355	-1337.515015	284.9164734	942.4157715	-1109.756714	76.50938416	990.972168	-1261.441772	76.71394348	989.6312256	-1172.19165	196.8957367	737.3085938	-1445.186768	148.0628357	676.432251	-1428.31543	196.8014526	675.4108276	-1440.913452	190.3100891	498.2577209	-1427.875977	213.2114868	467.0116577	-1283.817505	150.6499634	442.1010742	-1429.308594	143.2032013	325.7385864	-1450.716431	100.5113983	259.3548889	-1444.908447	149.8159637	263.822113	-1450.458496	125.8252335	85.0585022	-1434.370972	169.0392303	96.33909607	-1350.720825	78.32284546	38.65782547	-1374.879761	289.6551208	47.42777252	-1391.226929	238.5632935	32.12074661	-1492.139648	170.3184509	708.3880005	-1006.831543	202.5722656	636.4633179	-993.2910156	156.5712128	647.5983276	-1009.915039	158.2839966	496.8933716	-1014.132141	206.1228485	461.9595642	-1152.201416	114.6710892	442.1459351	-1015.370422	90.50697327	322.8100891	-998.9295044	130.1310577	255.5775452	-983.7350464	83.85822296	261.4353027	-1002.55365	89.87820435	86.57964325	-1016.735657	152.7750244	96.9655838	-1084.253418	57.93700409	38.06263351	-1077.63269	261.5896912	43.26970673	-1022.283081	202.3693848	40.99268723	-937.2832642	273.6911316	1368.255371	-1225.250244	311.7849731	1210.676025	-1227.062988	135.9582672	1414.421021	-1401.924683	124.3614197	1349.814331	-1515.715942	115.5804672	1299.402344	-1558.317627	149.5963593	1335.126221	-1575.089355	161.6716003	1298.321045	-1683.494263	184.8669739	1212.175293	-1633.859985	191.2671661	1267.248413	-1769.367432	197.4683228	1231.011719	-1823.842285	235.8961029	1262.732422	-1817.197388	306.1425476	1192.126221	-1862.65979	248.5639801	1213.813599	-1905.335083	150.9197235	1403.593994	-1042.597168	161.4674377	1337.154541	-909.9356079	211.5243683	1328.724976	-866.9987793	166.4615021	1317.63501	-846.4100342	158.9454803	1291.18335	-795.8230591	214.9549561	1197.639526	-809.1497192	216.5863495	1273.792114	-673.2290039	267.3129578	1262.397461	-633.4749756	222.477066	1249.758667	-613.1566772	305.2749634	1182.709839	-580.2714233	239.0426331	1214.92981	-543.8781128	1515.531738	1284.970581	-2309.249268	1540.556885	1283.442017	0	201.7608	482.6347	-1355.8467	182.2034	479.4265	-1083.1668	119.6829	81.306	-1049.6124	145.9654	80.1165	-1393.5368	225.6706	873.5595	-1140.5167	223.2951	874.0071	-1305.435
2	0.005	349.1375732	1572.977417	-1216.736938	289.7860718	1588.61145	-1140.707642	286.1183472	1588.317993	-1292.821777	123.5912399	1449.505981	-1213.618042	69.69502258	1243.985352	-1228.519165	65.63511658	1211.799316	-1232.800171	60.57741547	1150.938721	-1180.915161	69.73625183	1150.040771	-1229.794922	83.27716064	1109.153442	-1228.471924	60.17566681	1086.576782	-1227.865967	61.42106247	1027.002808	-1174.726563	54.013237	1024.781372	-1224.36731	65.07730865	974.8748169	-1249.765991	71.70530701	984.5276489	-1199.903687	42.06375504	926.0370483	-1211.186646	281.6567383	943.0290527	-1337.516235	284.9393005	942.4142456	-1109.758667	76.51821136	990.9838257	-1261.440186	76.74421692	989.6367188	-1172.189209	196.9030304	737.3108521	-1445.189453	148.0758667	676.4326782	-1428.303955	196.8191071	675.4100342	-1440.919678	190.3219452	498.2597656	-1427.869019	213.2254181	467.0232239	-1283.81665	150.663208	442.1017151	-1429.306763	143.2063446	325.7433167	-1450.717407	100.5226364	259.3528748	-1444.916138	149.8183899	263.8242798	-1450.464355	125.8269958	85.05513763	-1434.374268	169.0355682	96.34017944	-1350.713501	78.32318115	38.65840912	-1374.884399	289.6558838	47.43373108	-1391.229858	238.5594482	32.11911774	-1492.140137	170.344162	708.3853149	-1006.828796	202.585495	636.4638672	-993.2902222	156.595459	647.5927124	-1009.921692	158.3105621	496.8958435	-1014.133667	206.1414642	461.9568787	-1152.203491	114.6920242	442.1463928	-1015.366638	90.51941681	322.8204346	-998.9282227	130.0444794	255.8538818	-983.388916	83.86330414	261.4585571	-1002.548401	89.88322449	86.5792923	-1016.740784	152.7776642	96.96484375	-1084.254883	57.94674301	38.05748367	-1077.629639	261.5857849	43.26328278	-1022.279846	202.3721008	40.99432373	-937.2854614	273.7325439	1368.262573	-1225.245361	311.8264465	1210.677856	-1227.064941	135.9882355	1414.429077	-1401.906128	124.3740845	1349.827881	-1515.689575	115.5755157	1299.421753	-1558.300659	149.5991516	1335.137085	-1575.068481	161.671463	1298.338135	-1683.473267	184.8617096	1212.191895	-1633.856689	191.2680511	1267.267334	-1769.371704	197.4575958	1231.037842	-1823.834106	235.8874817	1262.761108	-1817.1875	306.1326904	1192.160889	-1862.658813	248.5614166	1213.844727	-1905.328247	150.9583893	1403.593506	-1042.591675	161.503952	1337.136108	-909.899292	211.5662231	1328.745728	-866.9891357	166.5181274	1317.648193	-846.3994141	159.0124817	1291.202026	-795.8146973	215.0089874	1197.661743	-809.1272583	216.6204987	1273.850586	-673.2473755	267.397522	1262.415771	-633.4567261	222.5361633	1249.795532	-613.1610107	305.3407898	1182.73645	-580.2581177	239.1172028	1214.97937	-543.8670654	1515.46582	1284.980713	-2309.22998	1540.560303	1283.4375	0	201.7737	482.6415	-1355.8428	182.226	479.4264	-1083.1686	119.6863	81.3055	-1049.6157	145.9641	80.1154	-1393.5348	225.6896	873.5606	-1140.5167	223.3127	874.0057	-1305.435
3	0.01	348.6876221	1573.080444	-1216.962891	289.7845154	1588.622314	-1140.709595	286.1010742	1588.333252	-1292.821777	123.6197968	1449.501587	-1213.605957	69.7091217	1243.987305	-1228.518555	65.6738205	1211.810913	-1232.784058	60.59403229	1150.945801	-1180.904541	69.75644684	1150.040039	-1229.784912	83.2990799	1109.151489	-1228.467041	60.20108795	1086.575806	-1227.86084	61.43698502	1027.005615	-1174.717407	54.03926849	1024.782715	-1224.36145	65.13857269	974.8525391	-1249.768433	71.69694519	984.520874	-1199.900879	42.08705902	926.0289917	-1211.17688	281.6743469	943.0245361	-1337.514771	284.9584351	942.4141846	-1109.754395	76.55393219	990.9775391	-1261.418945	76.7640686	989.6420898	-1172.180664	196.910675	737.3078003	-1445.190674	148.08078	676.4293823	-1428.300171	196.8267517	675.4094849	-1440.919189	190.3257599	498.2542725	-1427.86438	213.2234192	467.0057068	-1283.800903	150.6735077	442.1070862	-1429.304443	143.2150726	325.7405396	-1450.711182	100.5262604	259.3561707	-1444.924438	149.8291931	263.8252869	-1450.467896	125.8310471	85.0610733	-1434.373779	169.0345612	96.33501434	-1350.714722	78.32255554	38.6640358	-1374.880249	289.6585388	47.431427	-1391.226563	238.560379	32.11795044	-1492.140137	170.3606415	708.3839111	-1006.824646	202.6024475	636.4677734	-993.2921753	156.6141968	647.5958862	-1009.905762	158.3153076	496.8864136	-1014.130554	206.1723785	461.9604187	-1152.191528	114.7033539	442.1471558	-1015.361084	90.53419495	322.8204651	-998.9211426	130.1443481	255.5789032	-983.7335815	83.88320923	261.4376831	-1002.54425	89.88267517	86.58332062	-1016.737061	152.7785645	96.9637146	-1084.257935	57.93984222	38.0588913	-1077.630249	261.5878601	43.26324844	-1022.285583	202.3737793	40.99358749	-937.2813721	273.7739258	1368.261108	-1225.242798	311.8734436	1210.687256	-1227.067261	136.0201111	1414.436035	-1401.885254	124.398262	1349.85376	-1515.675903	115.5912857	1299.443237	-1558.265381	149.6225128	1335.159058	-1575.054199	161.6732788	1298.354248	-1683.467163	184.8634796	1212.211548	-1633.85437	191.2500763	1267.294067	-1769.360229	197.449295	1231.064575	-1823.826294	235.8802185	1262.79126	-1817.18335	306.1231995	1192.191895	-1862.653564	248.5524139	1213.879883	-1905.328735	150.997818	1403.589722	-1042.592529	161.5843964	1337.184082	-909.8944092	211.649292	1328.756104	-866.9848633	166.588089	1317.659912	-846.3905029	159.0736084	1291.210938	-795.8005371	215.0642853	1197.668701	-809.1044312	216.6994476	1273.965576	-673.18927	267.4742432	1262.450806	-633.4540405	222.5980988	1249.835571	-613.1517334	305.4079285	1182.773071	-580.2454834	239.1942749	1215.025879	-543.8502197	1515.534668	1284.962646	-2309.250244	1540.571899	1283.437744	0	201.7746	482.63	-1355.8326	182.2438	479.4234	-1083.161	119.686	81.307	-1049.6156	145.9656	80.1159	-1393.5355	225.7073	873.5609	-1140.5121	223.3293	874.0029	-1305.43
4	0.015	348.7005615	1573.117188	-1216.974609	289.8020325	1588.63623	-1140.7052	286.1003723	1588.360474	-1292.809326	123.6707687	1449.501343	-1213.573608	69.74359894	1244.001587	-1228.504761	65.69487762	1211.818115	-1232.777222	60.62520599	1150.946167	-1180.88855	69.77331543	1150.045654	-1229.764771	83.32144165	1109.151001	-1228.458496	60.22749329	1086.583008	-1227.853149	61.46330643	1027.008057	-1174.712524	54.06056213	1024.785034	-1224.353271	65.19379425	974.8702393	-1249.749268	71.72549438	984.5341187	-1199.878418	42.1049614	926.0321045	-1211.151123	281.6946411	943.0213623	-1337.509399	284.9839172	942.4098511	-1109.748901	76.55934143	990.9849854	-1261.421631	76.78198242	989.6497803	-1172.175171	196.927002	737.3112793	-1445.195679	148.0999603	676.4248657	-1428.29187	196.8434448	675.4103394	-1440.930176	190.3309784	498.2550049	-1427.861328	213.147522	466.9873352	-1284.194458	150.6746063	442.1080017	-1429.302734	143.2201691	325.7422485	-1450.70874	100.5296097	259.3582458	-1444.926147	149.8368225	263.8341675	-1450.474365	125.8269043	85.06378174	-1434.372314	169.0317383	96.33557129	-1350.714478	78.32527161	38.66043854	-1374.881104	289.6599731	47.4245491	-1391.226196	238.5584412	32.12107849	-1492.147705	170.3747253	708.3814697	-1006.819702	202.6203918	636.4525757	-993.2731323	156.630127	647.5961914	-1009.907043	158.3444366	496.8912354	-1014.123779	206.1857758	461.9528198	-1152.19751	114.7263718	442.1463013	-1015.354065	90.54280853	322.825592	-998.9169312	130.1802673	255.5804901	-983.7646484	83.88905334	261.4637756	-1002.535583	89.8844223	86.5875473	-1016.740479	152.7801056	96.96600342	-1084.25647	57.93458939	38.05953217	-1077.629395	261.5892639	43.264328	-1022.285767	202.3767242	40.99322128	-937.2825928	273.8173523	1368.262207	-1225.237061	311.9218445	1210.692261	-1227.075195	135.9207764	1414.559448	-1401.89978	124.4185333	1349.859253	-1515.655396	115.5868301	1299.453125	-1558.253906	149.6371613	1335.179199	-1575.040161	161.6714783	1298.381836	-1683.459473	184.8612061	1212.233154	-1633.853882	191.2500916	1267.330078	-1769.345337	197.451416	1231.091919	-1823.817139	235.8752136	1262.821289	-1817.175659	306.1157837	1192.222656	-1862.658081	248.5470581	1213.912964	-1905.324097	151.0418701	1403.585693	-1042.581421	161.6171875	1337.187988	-909.8729858	211.6950378	1328.770508	-866.9798584	166.6487732	1317.672852	-846.3768311	159.1399231	1291.232788	-795.7866211	215.1243896	1197.6875	-809.0891113	216.8065491	1273.996704	-673.1793823	267.5354614	1262.477295	-633.4590454	222.6755219	1249.878296	-613.1350708	305.4698181	1182.805542	-580.2336426	239.2664795	1215.071777	-543.845459	1515.531128	1284.961304	-2309.251465	1540.569824	1283.432861	0	201.7393	482.6212	-1356.0279	182.2651	479.422	-1083.1606	119.6871	81.3103	-1049.6166	145.9628	80.1169	-1393.5294	225.7293	873.5591	-1140.5056	223.3476	874.0019	-1305.424
